<?xml version="1.0" standalone="no"?>
<!DOCTYPE svg PUBLIC "-//W3C//DTD SVG 20010904//EN"
 "http://www.w3.org/TR/2001/REC-SVG-20010904/DTD/svg10.dtd">
<svg version="1.0" xmlns="http://www.w3.org/2000/svg"
 width="144.000000pt" height="144.000000pt" viewBox="0 0 144.000000 144.000000"
 preserveAspectRatio="xMidYMid meet">

<g transform="translate(0.000000,144.000000) scale(0.100000,-0.100000)"
fill="#000000" stroke="none">
<path d="M625 1409 c-68 -10 -164 -41 -215 -69 l-35 -19 46 -1 c55 0 128 -24
228 -75 l74 -37 96 45 c120 56 152 67 210 68 l46 1 -60 28 c-114 55 -268 78
-390 59z"/>
<path d="M185 1164 c-56 -71 -118 -195 -141 -284 -23 -86 -23 -244 0 -330 16
-63 80 -207 107 -243 12 -15 14 -10 15 45 2 75 19 129 84 263 46 97 173 298
239 379 l32 40 -43 43 c-60 62 -167 132 -210 139 -34 6 -38 4 -83 -52z"/>
<path d="M1151 1209 c-37 -15 -141 -92 -184 -136 l-38 -39 32 -40 c66 -82 193
-282 244 -388 58 -116 91 -236 81 -289 -5 -31 -5 -31 10 -12 29 36 93 179 110
245 11 40 17 104 17 165 0 61 -6 125 -17 165 -23 88 -85 213 -140 283 -48 59
-65 66 -115 46z"/>
<path d="M593 746 c-237 -227 -380 -449 -343 -534 23 -54 180 -144 310 -178
86 -23 244 -23 330 0 130 34 287 124 310 178 25 57 -33 179 -159 338 -71 89
-296 310 -316 310 -7 0 -67 -51 -132 -114z"/>
</g>
</svg>
